<svg  viewBox="0 0 30 30" fill="none" xmlns="http://www.w3.org/2000/svg">
<path d="M15 11.3115C15.1667 11.3115 15.3229 11.3376 15.4688 11.3896C15.6146 11.4417 15.75 11.5303 15.875 11.6553L21.625 17.4053C21.8542 17.6344 21.9688 17.9261 21.9688 18.2803C21.9688 18.6344 21.8542 18.9261 21.625 19.1553C21.3958 19.3844 21.1042 19.499 20.75 19.499C20.3958 19.499 20.1042 19.3844 19.875 19.1553L15 14.2803L10.125 19.1553C9.89583 19.3844 9.60417 19.499 9.25 19.499C8.89583 19.499 8.60417 19.3844 8.375 19.1553C8.14583 18.9261 8.03125 18.6344 8.03125 18.2803C8.03125 17.9261 8.14583 17.6344 8.375 17.4053L14.125 11.6553C14.25 11.5303 14.3854 11.4417 14.5313 11.3896C14.6771 11.3376 14.8333 11.3115 15 11.3115Z" fill="#CFDBEA"/>
</svg>
