<svg viewBox="0 0 98 30" fill="none" xmlns="http://www.w3.org/2000/svg">
<path d="M29.6169 21.1279C29.6169 22.3521 29.3826 23.5076 28.9142 24.5942C28.4595 25.6671 27.8257 26.6094 27.0127 27.4209C26.2136 28.2187 25.2697 28.8514 24.1812 29.3191C23.1065 29.773 21.956 30 20.7297 30C19.6275 30 18.5665 29.8074 17.5469 29.4223C16.5411 29.0371 15.6317 28.4732 14.8188 27.7304C14.0058 28.4732 13.0896 29.0371 12.07 29.4223C11.0503 29.8074 9.9894 30 8.88713 30C7.66084 30 6.50345 29.773 5.41495 29.3191C4.34022 28.8514 3.3964 28.2187 2.58347 27.4209C1.78431 26.6094 1.1505 25.6671 0.682035 24.5942C0.227345 23.5076 0 22.3521 0 21.1279V0H5.93164V21.1279C5.93164 21.5406 6.00742 21.9326 6.15898 22.304C6.31055 22.6616 6.51722 22.978 6.77902 23.2531C7.05459 23.5144 7.37149 23.7208 7.72973 23.8721C8.08797 24.0234 8.47377 24.099 8.88713 24.099C9.30048 24.099 9.68628 24.0234 10.0445 23.8721C10.4028 23.7208 10.7128 23.5144 10.9746 23.2531C11.2501 22.978 11.4637 22.6616 11.6153 22.304C11.7668 21.9326 11.8426 21.5406 11.8426 21.1279V0H17.7743V21.1279C17.7743 21.5406 17.85 21.9326 18.0016 22.304C18.1532 22.6616 18.3598 22.978 18.6216 23.2531C18.8972 23.5144 19.2141 23.7208 19.5723 23.8721C19.9306 24.0234 20.3164 24.099 20.7297 24.099C21.1431 24.099 21.5289 24.0234 21.8871 23.8721C22.2454 23.7208 22.5554 23.5144 22.8172 23.2531C23.0927 22.978 23.3063 22.6616 23.4579 22.304C23.6232 21.9326 23.7059 21.5406 23.7059 21.1279V0H29.6169V21.1279Z" fill="white"/>
<path d="M41.9828 0H35.6143V30H41.9828V0Z" fill="white"/>
<path d="M71.6861 29.7937H65.3411L53.9119 10.3164V29.7937H47.9802V0.206327H54.3252L65.7545 19.7043V0.206327H71.6861V29.7937Z" fill="white"/>
<path d="M98 29.7937H77.6836V0.206327H98V6.12792H83.6153V12.0495H93.3498V17.9711H83.6153V23.8721H98V29.7937Z" fill="white"/>
</svg>
